<?xml version="1.0" encoding="UTF-8"?>
<svg id="Layer_1" xmlns="http://www.w3.org/2000/svg" version="1.1" viewBox="0 0 800 800">
  <!-- Generator: Adobe Illustrator 29.1.0, SVG Export Plug-In . SVG Version: 2.1.0 Build 142)  -->
  <path id="ray1" d="M350,150V0h100v150h-100Z"/>
  <path id="ray5" d="M450,650v150h-100v-150h100Z"/>
  <path id="ball" d="M550,400c0,82.8-67.2,150-150,150s-150-67.2-150-150,67.2-150,150-150,150,67.2,150,150Z"/>
  <path id="ray7" d="M0,450h150v-100H0v100Z"/>
  <path id="ray3" d="M800,350h-150v100h150v-100Z"/>
  <path id="ray8" d="M187.9,258.6l-106.1-106.1,70.7-70.7,106.1,106.1-70.7,70.7Z"/>
  <path id="ray4" d="M612.1,541.4l106.1,106.1-70.7,70.7-106.1-106.1,70.7-70.7Z"/>
  <path id="ray6" d="M152.5,718.2l106.1-106.1-70.7-70.7-106.1,106.1,70.7,70.7Z"/>
  <path id="ray2" d="M647.5,81.8l-106.1,106.1,70.7,70.7,106.1-106.1-70.7-70.7Z"/>
</svg>